<mxfile host="65bd71144e">
    <diagram id="ixESjQC3Qx8xjJjzo-Jb" name="Page-1">
        <mxGraphModel dx="1142" dy="568" grid="1" gridSize="10" guides="1" tooltips="1" connect="1" arrows="1" fold="1" page="1" pageScale="1" pageWidth="850" pageHeight="1100" math="0" shadow="0">
            <root>
                <mxCell id="0"/>
                <mxCell id="1" parent="0"/>
                <mxCell id="4" value="" style="rounded=0;whiteSpace=wrap;html=1;fillColor=#FF8000;strokeColor=#FF8000;" vertex="1" parent="1">
                    <mxGeometry x="30" y="80" width="760" height="540" as="geometry"/>
                </mxCell>
                <mxCell id="5" value="&lt;font color=&quot;#fdf7f7&quot; style=&quot;font-size: 32px;&quot;&gt;&lt;b&gt;App Module&lt;/b&gt;&lt;/font&gt;" style="text;html=1;strokeColor=none;fillColor=none;align=center;verticalAlign=middle;whiteSpace=wrap;rounded=0;" vertex="1" parent="1">
                    <mxGeometry x="80" y="96" width="190" height="40" as="geometry"/>
                </mxCell>
                <mxCell id="6" value="Routing Module" style="rounded=0;whiteSpace=wrap;html=1;fontSize=32;fontColor=#fdf7f7;fillColor=#0000FF;strokeColor=#0000FF;" vertex="1" parent="1">
                    <mxGeometry x="80" y="555" width="660" height="39" as="geometry"/>
                </mxCell>
                <mxCell id="7" value="" style="rounded=0;whiteSpace=wrap;html=1;fontSize=32;fontColor=#fdf7f7;fillColor=#0CBCE9;strokeColor=#0CBCE9;" vertex="1" parent="1">
                    <mxGeometry x="80" y="150" width="250" height="390" as="geometry"/>
                </mxCell>
                <mxCell id="8" value="&lt;font color=&quot;#fdf7f7&quot; style=&quot;font-size: 32px;&quot;&gt;&lt;b&gt;Core Module&lt;/b&gt;&lt;/font&gt;" style="text;html=1;strokeColor=none;fillColor=none;align=center;verticalAlign=middle;whiteSpace=wrap;rounded=0;" vertex="1" parent="1">
                    <mxGeometry x="95" y="308" width="210" height="40" as="geometry"/>
                </mxCell>
                <mxCell id="9" value="Routing Module" style="rounded=0;whiteSpace=wrap;html=1;fontSize=32;fontColor=#fdf7f7;fillColor=#0000FF;strokeColor=#0000FF;" vertex="1" parent="1">
                    <mxGeometry x="85.5" y="487" width="237" height="39" as="geometry"/>
                </mxCell>
                <mxCell id="12" style="edgeStyle=none;html=1;entryX=1.01;entryY=0.081;entryDx=0;entryDy=0;entryPerimeter=0;fontSize=32;fontColor=#fdf7f7;dashed=1;endArrow=baseDash;endFill=0;rounded=1;strokeColor=none;" edge="1" parent="1" source="11" target="7">
                    <mxGeometry relative="1" as="geometry"/>
                </mxCell>
                <mxCell id="11" value="" style="rounded=0;whiteSpace=wrap;html=1;strokeColor=#FF3333;fontSize=32;fontColor=#fdf7f7;fillColor=#FF3333;" vertex="1" parent="1">
                    <mxGeometry x="394" y="150" width="330" height="60" as="geometry"/>
                </mxCell>
                <mxCell id="13" value="&lt;font size=&quot;1&quot; color=&quot;#fdf7f7&quot; style=&quot;&quot;&gt;&lt;b style=&quot;font-size: 20px;&quot;&gt;Auth Module&lt;/b&gt;&lt;/font&gt;" style="text;html=1;strokeColor=none;fillColor=none;align=center;verticalAlign=middle;whiteSpace=wrap;rounded=0;" vertex="1" parent="1">
                    <mxGeometry x="394" y="150" width="136" height="30" as="geometry"/>
                </mxCell>
                <mxCell id="14" value="&lt;font style=&quot;font-size: 16px;&quot;&gt;Routing Module&lt;/font&gt;" style="rounded=0;whiteSpace=wrap;html=1;fontSize=32;fontColor=#fdf7f7;fillColor=#0000FF;strokeColor=#0000FF;align=center;" vertex="1" parent="1">
                    <mxGeometry x="608" y="150" width="116" height="60" as="geometry"/>
                </mxCell>
                <mxCell id="16" value="" style="rounded=0;whiteSpace=wrap;html=1;strokeColor=#FF3333;fontSize=32;fontColor=#fdf7f7;fillColor=#FF3333;" vertex="1" parent="1">
                    <mxGeometry x="394" y="230" width="330" height="60" as="geometry"/>
                </mxCell>
                <mxCell id="17" value="&lt;font color=&quot;#fdf7f7&quot; style=&quot;font-size: 20px;&quot;&gt;&lt;b style=&quot;&quot;&gt;&lt;span style=&quot;&quot;&gt;Book Catalog&amp;nbsp;&lt;/span&gt;Module&lt;/b&gt;&lt;/font&gt;" style="text;html=1;strokeColor=none;fillColor=none;align=center;verticalAlign=middle;whiteSpace=wrap;rounded=0;" vertex="1" parent="1">
                    <mxGeometry x="387.25" y="230" width="227.5" height="30" as="geometry"/>
                </mxCell>
                <mxCell id="18" value="&lt;font style=&quot;font-size: 16px;&quot;&gt;Routing Module&lt;/font&gt;" style="rounded=0;whiteSpace=wrap;html=1;fontSize=32;fontColor=#fdf7f7;fillColor=#0000FF;strokeColor=#0000FF;align=center;" vertex="1" parent="1">
                    <mxGeometry x="608" y="230" width="116" height="60" as="geometry"/>
                </mxCell>
                <mxCell id="19" value="" style="rounded=0;whiteSpace=wrap;html=1;strokeColor=#FF3333;fontSize=32;fontColor=#fdf7f7;fillColor=#FF3333;" vertex="1" parent="1">
                    <mxGeometry x="394" y="310" width="330" height="60" as="geometry"/>
                </mxCell>
                <mxCell id="20" value="&lt;font size=&quot;1&quot; color=&quot;#fdf7f7&quot;&gt;&lt;b style=&quot;font-size: 20px;&quot;&gt;Report Module&lt;/b&gt;&lt;/font&gt;" style="text;html=1;strokeColor=none;fillColor=none;align=center;verticalAlign=middle;whiteSpace=wrap;rounded=0;" vertex="1" parent="1">
                    <mxGeometry x="397" y="310" width="146" height="30" as="geometry"/>
                </mxCell>
                <mxCell id="21" value="&lt;font style=&quot;font-size: 16px;&quot;&gt;Routing Module&lt;/font&gt;" style="rounded=0;whiteSpace=wrap;html=1;fontSize=32;fontColor=#fdf7f7;fillColor=#0000FF;strokeColor=#0000FF;align=center;" vertex="1" parent="1">
                    <mxGeometry x="608" y="310" width="116" height="60" as="geometry"/>
                </mxCell>
                <mxCell id="22" value="" style="rounded=0;whiteSpace=wrap;html=1;strokeColor=#FF3333;fontSize=32;fontColor=#fdf7f7;fillColor=#FF3333;" vertex="1" parent="1">
                    <mxGeometry x="394" y="400" width="330" height="60" as="geometry"/>
                </mxCell>
                <mxCell id="23" value="&lt;font color=&quot;#fdf7f7&quot; style=&quot;font-size: 20px;&quot;&gt;&lt;b style=&quot;&quot;&gt;Security Module&lt;/b&gt;&lt;/font&gt;" style="text;html=1;strokeColor=none;fillColor=none;align=center;verticalAlign=middle;whiteSpace=wrap;rounded=0;" vertex="1" parent="1">
                    <mxGeometry x="397" y="400" width="173" height="30" as="geometry"/>
                </mxCell>
                <mxCell id="24" value="&lt;font style=&quot;font-size: 16px;&quot;&gt;Routing Module&lt;/font&gt;" style="rounded=0;whiteSpace=wrap;html=1;fontSize=32;fontColor=#fdf7f7;fillColor=#0000FF;strokeColor=#0000FF;align=center;" vertex="1" parent="1">
                    <mxGeometry x="608" y="400" width="116" height="60" as="geometry"/>
                </mxCell>
                <mxCell id="25" value="" style="rounded=0;whiteSpace=wrap;html=1;strokeColor=#FF3333;fontSize=32;fontColor=#fdf7f7;fillColor=#FF3333;" vertex="1" parent="1">
                    <mxGeometry x="394" y="480" width="330" height="60" as="geometry"/>
                </mxCell>
                <mxCell id="26" value="&lt;font color=&quot;#fdf7f7&quot; style=&quot;font-size: 20px;&quot;&gt;&lt;b style=&quot;&quot;&gt;Shared Module&lt;/b&gt;&lt;/font&gt;" style="text;html=1;strokeColor=none;fillColor=none;align=center;verticalAlign=middle;whiteSpace=wrap;rounded=0;" vertex="1" parent="1">
                    <mxGeometry x="394" y="480" width="166" height="30" as="geometry"/>
                </mxCell>
                <mxCell id="28" value="" style="endArrow=none;dashed=1;html=1;dashPattern=1 3;strokeWidth=2;rounded=1;fontSize=20;fontColor=#fdf7f7;exitX=0.997;exitY=0.477;exitDx=0;exitDy=0;exitPerimeter=0;strokeColor=#0CBCE9;" edge="1" parent="1">
                    <mxGeometry width="50" height="50" relative="1" as="geometry">
                        <mxPoint x="331.25" y="340.03" as="sourcePoint"/>
                        <mxPoint x="390" y="341" as="targetPoint"/>
                    </mxGeometry>
                </mxCell>
                <mxCell id="29" value="" style="endArrow=none;dashed=1;html=1;dashPattern=1 3;strokeWidth=2;rounded=1;fontSize=20;fontColor=#fdf7f7;exitX=0.997;exitY=0.477;exitDx=0;exitDy=0;exitPerimeter=0;strokeColor=#0CBCE9;" edge="1" parent="1">
                    <mxGeometry width="50" height="50" relative="1" as="geometry">
                        <mxPoint x="330" y="259.03" as="sourcePoint"/>
                        <mxPoint x="388.75" y="260" as="targetPoint"/>
                    </mxGeometry>
                </mxCell>
                <mxCell id="30" value="" style="endArrow=none;dashed=1;html=1;dashPattern=1 3;strokeWidth=2;rounded=1;fontSize=20;fontColor=#fdf7f7;exitX=0.997;exitY=0.477;exitDx=0;exitDy=0;exitPerimeter=0;strokeColor=#0CBCE9;" edge="1" parent="1">
                    <mxGeometry width="50" height="50" relative="1" as="geometry">
                        <mxPoint x="328.5" y="179.02999999999997" as="sourcePoint"/>
                        <mxPoint x="387.25" y="180" as="targetPoint"/>
                    </mxGeometry>
                </mxCell>
                <mxCell id="31" value="" style="endArrow=none;dashed=1;html=1;dashPattern=1 3;strokeWidth=2;rounded=1;fontSize=20;fontColor=#fdf7f7;exitX=0.997;exitY=0.477;exitDx=0;exitDy=0;exitPerimeter=0;strokeColor=#0CBCE9;" edge="1" parent="1">
                    <mxGeometry width="50" height="50" relative="1" as="geometry">
                        <mxPoint x="328.5" y="430" as="sourcePoint"/>
                        <mxPoint x="387.25" y="430.97" as="targetPoint"/>
                    </mxGeometry>
                </mxCell>
                <mxCell id="32" value="" style="endArrow=none;dashed=1;html=1;dashPattern=1 3;strokeWidth=2;rounded=1;fontSize=20;fontColor=#fdf7f7;exitX=0.997;exitY=0.477;exitDx=0;exitDy=0;exitPerimeter=0;strokeColor=#0CBCE9;" edge="1" parent="1">
                    <mxGeometry width="50" height="50" relative="1" as="geometry">
                        <mxPoint x="330" y="510" as="sourcePoint"/>
                        <mxPoint x="388.75" y="510.97" as="targetPoint"/>
                    </mxGeometry>
                </mxCell>
                <mxCell id="33" value="layout" style="rounded=0;whiteSpace=wrap;html=1;strokeColor=#33FF33;fontSize=20;fontColor=#fdf7f7;fillColor=#33FF33;" vertex="1" parent="1">
                    <mxGeometry x="114.75" y="449" width="174.5" height="30" as="geometry"/>
                </mxCell>
                <mxCell id="34" value="layout" style="rounded=0;whiteSpace=wrap;html=1;strokeColor=#33FF33;fontSize=20;fontColor=#fdf7f7;fillColor=#33FF33;" vertex="1" parent="1">
                    <mxGeometry x="394.5" y="190" width="215.5" height="20" as="geometry"/>
                </mxCell>
                <mxCell id="35" value="layout" style="rounded=0;whiteSpace=wrap;html=1;strokeColor=#33FF33;fontSize=20;fontColor=#fdf7f7;fillColor=#33FF33;" vertex="1" parent="1">
                    <mxGeometry x="394.5" y="270" width="215.5" height="20" as="geometry"/>
                </mxCell>
                <mxCell id="36" value="layout" style="rounded=0;whiteSpace=wrap;html=1;strokeColor=#33FF33;fontSize=20;fontColor=#fdf7f7;fillColor=#33FF33;" vertex="1" parent="1">
                    <mxGeometry x="394" y="350" width="215.5" height="20" as="geometry"/>
                </mxCell>
                <mxCell id="37" value="layout" style="rounded=0;whiteSpace=wrap;html=1;strokeColor=#33FF33;fontSize=20;fontColor=#fdf7f7;fillColor=#33FF33;" vertex="1" parent="1">
                    <mxGeometry x="394.5" y="440" width="215.5" height="20" as="geometry"/>
                </mxCell>
                <mxCell id="39" value="&lt;font style=&quot;font-size: 32px;&quot; color=&quot;#141515&quot;&gt;&lt;b&gt;URL DE NUESTROS RECURSOS&lt;/b&gt;&lt;/font&gt;" style="text;html=1;strokeColor=none;fillColor=none;align=center;verticalAlign=middle;whiteSpace=wrap;rounded=0;fontSize=20;fontColor=#fdf7f7;" vertex="1" parent="1">
                    <mxGeometry x="30" y="650" width="500" height="30" as="geometry"/>
                </mxCell>
                <mxCell id="40" value="&lt;font color=&quot;#6600cc&quot;&gt;http&lt;/font&gt;://&lt;font color=&quot;#ff3333&quot;&gt;localhost&lt;/font&gt;:&lt;font color=&quot;#ff8000&quot;&gt;4200&lt;/font&gt;/&lt;font color=&quot;#33ff33&quot;&gt;book-catalog&lt;/font&gt;/&lt;font color=&quot;#3b83bd&quot;&gt;book&lt;/font&gt;" style="text;html=1;strokeColor=none;fillColor=none;align=center;verticalAlign=middle;whiteSpace=wrap;rounded=0;fontSize=32;fontColor=#141515;" vertex="1" parent="1">
                    <mxGeometry x="30" y="690" width="570" height="30" as="geometry"/>
                </mxCell>
            </root>
        </mxGraphModel>
    </diagram>
</mxfile>